/vscmnt/brussel_pixiu_data/_data_brussel/112/vsc11236/PredSimResults/SUBJ11mtu3D/weighted-LRposFixed/trackIG/worker_04.mot
version=1
nRows=6
nColumns=50
inDegrees=yes
endheader
                time	         pelvis_tilt	         pelvis_list	     pelvis_rotation	           pelvis_tx	           pelvis_ty	           pelvis_tz	       hip_flexion_r	     hip_adduction_r	      hip_rotation_r	        knee_angle_r	       ankle_angle_r	         mtp_angle_r	       hip_flexion_l	     hip_adduction_l	      hip_rotation_l	        knee_angle_l	       ankle_angle_l	         mtp_angle_l	    lumbar_extension	      lumbar_bending	     lumbar_rotation	 ercspn_r/activation	 intobl_r/activation	 extobl_r/activation	    abd_r/activation	    add_r/activation	hamstrings_r/activation	bifemsh_r/activation	glut_max_r/activation	iliopsoas_r/activation	rect_fem_r/activation	  vasti_r/activation	gastroc_r/activation	 soleus_r/activation	tib_ant_r/activation	 ercspn_l/activation	 intobl_l/activation	 extobl_l/activation	    abd_l/activation	    add_l/activation	hamstrings_l/activation	bifemsh_l/activation	glut_max_l/activation	iliopsoas_l/activation	rect_fem_l/activation	  vasti_l/activation	gastroc_l/activation	 soleus_l/activation	tib_ant_l/activation	
          0.70799610	         -5.83383628	          4.96946549	         -8.30005114	          0.71507606	          0.94149801	          0.01771416	        -12.04873726	         -5.44755382	          4.86512405	         -6.97787958	         12.78922021	         26.19260227	         30.74986602	          1.41967305	         -4.41567676	         -4.44192306	          5.46001336	          0.22981540	         -4.00717905	         -3.04865001	          2.10925117	          0.03589997	          0.00999999	          0.00999999	          0.05446828	          0.02078487	          0.02743239	          0.13194318	          0.05446829	          0.45804468	          0.00999999	          0.00999999	          0.35817487	          0.26280498	          0.01064539	          0.08273153	          0.12771434	          0.02664346	          0.01235998	          0.10943582	          0.05867385	          0.18699372	          0.01891498	          0.09384511	          0.01106321	          0.00999999	          0.01081189	          0.00999999	          0.27663884	
          0.72215602	         -5.96762712	          4.80196727	         -8.33782288	          0.73269501	          0.93929769	          0.01690478	        -12.32474583	         -5.35228756	          4.48406392	         -8.21646926	         12.33033561	         28.12034366	         30.85998729	          1.43097841	         -4.38773961	         -6.15663440	          5.02848577	          0.19344491	         -3.70569581	         -3.31589472	          2.29587316	          0.06393787	          0.00999999	          0.00999999	          0.04406824	          0.05477320	          0.02450365	          0.10675026	          0.04406824	          0.46076115	          0.00999999	          0.00999999	          0.32996654	          0.24889982	          0.00999999	          0.06693497	          0.12712055	          0.02155622	          0.00999999	          0.13132251	          0.06109221	          0.15128958	          0.06329049	          0.07592654	          0.00999999	          0.00999999	          0.01888225	          0.01405957	          0.30158290	
          0.73631595	         -6.07901434	          4.62570133	         -8.32281887	          0.75063884	          0.93749722	          0.01599804	        -12.41190707	         -5.23296014	          4.07510925	         -9.85537984	         11.73388960	         30.15543551	         30.75867988	          1.43751221	         -4.37389871	         -7.60560010	          4.49260874	          0.18230590	         -3.39997219	         -3.58724889	          2.46237558	          0.08746680	          0.00999999	          0.00999999	          0.03565395	          0.04754584	          0.02382633	          0.08636761	          0.03565395	          0.44878941	          0.00999999	          0.01825535	          0.29453742	          0.23065732	          0.00999999	          0.07574614	          0.10284845	          0.01744032	          0.07363726	          0.14535902	          0.06034261	          0.12240270	          0.08245749	          0.06142931	          0.00999999	          0.00999999	          0.01527691	          0.01137507	          0.34427220	
          0.75047587	         -6.16742873	          4.43976524	         -8.25673124	          0.76865810	          0.93634248	          0.01499178	        -12.23646477	         -5.08815918	          3.64559673	        -11.97613331	         10.93101226	         32.29477489	         30.50839224	          1.44850668	         -4.39371855	         -8.82529633	          3.87992959	          0.14221795	         -3.11188719	         -3.85990709	          2.60350677	          0.11487149	          0.00999999	          0.00999999	          0.02884627	          0.06045120	          0.02226040	          0.06987678	          0.02884627	          0.42652254	          0.00999999	          0.01476972	          0.23829913	          0.18680997	          0.00999999	          0.08374655	          0.08321081	          0.01411031	          0.11809351	          0.17394046	          0.05326557	          0.09903142	          0.11077318	          0.04970014	          0.00999999	          0.00999999	          0.01235998	          0.00999999	          0.37026582	
          0.76463579	         -6.23047056	          4.25087290	         -8.14351256	          0.78655622	          0.93593748	          0.01390681	        -11.73461975	         -4.92382870	          3.19062868	        -14.66765021	          9.92360796	         34.43202333	         30.18229277	          1.46711399	         -4.45479224	         -9.98814318	          3.45106029	          0.11140862	         -2.85438416	         -4.14175860	          2.71356723	          0.13544514	          0.00999999	          0.00999999	          0.02333843	          0.07893308	          0.02566451	          0.05653467	          0.02333843	          0.38506017	          0.00999999	          0.01194962	          0.19279885	          0.15114091	          0.00999999	          0.07926680	          0.06732273	          0.01141612	          0.13742898	          0.18266454	          0.04932259	          0.08012259	          0.11540727	          0.04021051	          0.00999999	          0.04242155	          0.00999999	          0.00999999	          0.39166955	
          0.77879571	         -6.26720164	          4.05916866	         -7.98612340	          0.80420972	          0.93625668	          0.01276807	        -10.88448059	         -4.74396410	          2.69711728	        -17.94233139	          8.69751695	         36.42111840	         29.77053707	          1.49187396	         -4.54003446	        -11.04302032	          3.13001444	          0.08835135	         -2.63452435	         -4.43243561	          2.78939560	          0.13725186	          0.00999999	          0.00999999	          0.01888224	          0.09192676	          0.03559019	          0.04574008	          0.01888224	          0.32925563	          0.00999999	          0.00999999	          0.15598629	          0.12228242	          0.00999999	          0.07586562	          0.05446829	          0.00999999	          0.14096326	          0.14778700	          0.05262298	          0.06482417	          0.10592460	          0.03253281	          0.00999999	          0.10417775	          0.00999999	          0.00999999	          0.39945609	
